<?xml version="1.0" standalone="no"?>
<!DOCTYPE svg PUBLIC "-//W3C//DTD SVG 1.1//EN" "http://www.w3.org/Graphics/SVG/1.1/DTD/svg11.dtd" >
<svg xmlns="http://www.w3.org/2000/svg">
<metadata>
Created by FontForge 20120731 at Mon Jun 27 16:49:44 2016
 By admin
</metadata>
<defs>
<font id="iconfont" horiz-adv-x="1024" >
  <font-face 
    font-family="iconfont"
    font-weight="500"
    font-stretch="normal"
    units-per-em="1024"
    panose-1="2 0 6 3 0 0 0 0 0 0"
    ascent="896"
    descent="-128"
    x-height="792"
    bbox="0 -212 1024 897"
    underline-thickness="50"
    underline-position="-100"
    unicode-range="U+0078-E613"
  />
<missing-glyph horiz-adv-x="374" 
d="M34 0v682h272v-682h-272zM68 34h204v614h-204v-614z" />
    <glyph glyph-name=".notdef" horiz-adv-x="374" 
d="M34 0v682h272v-682h-272zM68 34h204v614h-204v-614z" />
    <glyph glyph-name=".null" horiz-adv-x="0" 
 />
    <glyph glyph-name="nonmarkingreturn" horiz-adv-x="341" 
 />
    <glyph glyph-name="x" unicode="x" horiz-adv-x="1001" 
d="M281 543q-27 -1 -53 -1h-83q-18 0 -36.5 -6t-32.5 -18.5t-23 -32t-9 -45.5v-76h912v41q0 16 -0.5 30t-0.5 18q0 13 -5 29t-17 29.5t-31.5 22.5t-49.5 9h-133v-97h-438v97zM955 310v-52q0 -23 0.5 -52t0.5 -58t-10.5 -47.5t-26 -30t-33 -16t-31.5 -4.5q-14 -1 -29.5 -0.5
t-29.5 0.5h-32l-45 128h-439l-44 -128h-29h-34q-20 0 -45 1q-25 0 -41 9.5t-25.5 23t-13.5 29.5t-4 30v167h911zM163 247q-12 0 -21 -8.5t-9 -21.5t9 -21.5t21 -8.5q13 0 22 8.5t9 21.5t-9 21.5t-22 8.5zM316 123q-8 -26 -14 -48q-5 -19 -10.5 -37t-7.5 -25t-3 -15t1 -14.5
t9.5 -10.5t21.5 -4h37h67h81h80h64h36q23 0 34 12t2 38q-5 13 -9.5 30.5t-9.5 34.5q-5 19 -11 39h-368zM336 498v228q0 11 2.5 23t10 21.5t20.5 15.5t34 6h188q31 0 51.5 -14.5t20.5 -52.5v-227h-327z" />
    <glyph glyph-name="uniE600" unicode="&#xe600;" 
d="M862 289h-232l-116 -203l116 -203h232l116 203zM828 -59h-165l-82 145l82 145h165l83 -145zM746 492l-116 203h-232l-116 -203l116 -203h232zM431 347l-82 145l82 145h165l83 -145l-83 -145h-165zM166 289l-116 -203l116 -203h232l116 203l-116 203h-232zM364 -59h-165
l-83 145l83 145h165l83 -145z" />
    <glyph glyph-name="uniE601" unicode="&#xe601;" horiz-adv-x="1043" 
d="M510.5 699q-111.5 0 -206 -55t-149.5 -149.5t-55 -206t55 -206t149.5 -149.5t206 -55t206 55t149.5 149.5t55 206t-55 206t-149.5 149.5t-206 55zM626 617l-115 -181h-1l-129 176q62 24 130 24q59 0 115 -19zM163 288q0 88 45.5 169t117.5 129l141 -184h-145v-52h160
v-101h-160v-52h160v-255q-132 14 -225.5 113.5t-93.5 232.5zM539 -58v255h155v52h-155v101h155v52h-139l125 194q78 -46 128.5 -130t50.5 -178q0 -133 -93.5 -232.5t-226.5 -113.5z" />
    <glyph glyph-name="uniE602" unicode="&#xe602;" 
d="M290 385h-14q-88 0 -150 -62t-62 -150q0 -87 61.5 -149t148.5 -62q89 0 151 65q51 51 59 122l-64 5q-7 0 -9 4.5t3 10.5l117 156q4 6 9 5.5t8 -7.5l73 -169q2 -7 -1 -11t-10 -3l-58 4q-10 -89 -70 -156q65 -29 138 -29q92 0 170.5 45.5t124 124t45.5 171.5t-45.5 171.5
t-124 124t-170.5 45.5q-118 0 -210 -72.5t-120 -183.5v0z" />
    <glyph glyph-name="uniE603" unicode="&#xe603;" 
d="M741 31q-21 0 -36 -15t-15 -36t15 -36t36 -15t36 15t15 36t-15 36t-36 15zM741 251q21 0 36 15t15 36t-15 36t-36 15t-36 -15t-15 -36t15 -36t36 -15zM741 574q21 0 36 15t15 36t-15 36t-36 15t-36 -15t-15 -36t15 -36t36 -15zM72 812v-1024h880v1024h-880zM875 735v-236
h-726v236h726zM875 432v-254h-726v254h726zM149 -135v245h726v-245h-726z" />
    <glyph glyph-name="uniE604" unicode="&#xe604;" horiz-adv-x="1025" 
d="M866 150q-30 0 -59 -12l-194 350q57 49 57 122q0 66 -46.5 113t-111.5 47t-111.5 -47t-46.5 -113q0 -60 40 -106l-198 -359q-21 5 -38 5q-66 0 -112 -47t-46 -113t46 -113t112 -47q58 0 101.5 38t53.5 95h398q10 -57 53.5 -95t101.5 -38q66 0 112 47t46 113t-46 113
t-112 47zM445 466q33 -16 67 -16q21 0 46 8l196 -355q-31 -32 -41 -76h-402q-13 55 -58 90z" />
    <glyph glyph-name="uniE605" unicode="&#xe605;" 
d="M829 589q14 -82 14 -205t-14 -206q-10 -60 -30.5 -80.5t-80.5 -31.5q-85 -14 -204.5 -14t-206.5 15q-60 10 -80.5 30t-30.5 81q-15 82 -15 204t15 207q11 59 31 79.5t80 31.5q83 15 205 14.5t206 -15.5q60 -11 80 -31t31 -79v0zM409 628q-27 0 -46 -19t-19 -45
q0 -27 19 -46t46 -19q18 0 32 8q38 22 54.5 27t34 0t54.5 -27q16 -9 32 -9q27 0 46 19t19 46t-19 46t-46 19q-16 0 -32 -9q-53 -30 -71.5 -30t-71.5 30q-14 9 -32 9v0zM720 318q27 0 45.5 19t18.5 46t-18.5 46t-45.5 19q-17 0 -33 -9q-48 -27 -80 -28t-72 19l-9 3
q-6 2 -14 2q-3 0 -13 -1l-9 -4q-42 -20 -72.5 -19t-80.5 29q-15 8 -32 8q-27 0 -46 -18.5t-19 -45.5t19 -46t46 -19q18 0 32 9q31 17 55.5 24.5t37.5 6t20 -7.5q5 -3 -7 -18q-2 -2 -3 -4q-8 -9 -21 -21t-32.5 -29.5t-30.5 -27.5q-20 -19 -20 -47q0 -27 18.5 -46t45.5 -19
q11 0 24 4q22 6 45.5 15t38 16t35 17.5t26.5 13.5q4 2 5 1.5t2 -5.5q2 -11 6 -20q5 -14 19.5 -27.5t33.5 -14.5q31 -4 47.5 18t9.5 49q-9 33 -38 50t-62 5q-71 -30 -138 -30q-9 1 -6 9q6 21 31 55t53 48q25 12 43.5 15t47 -3.5t64.5 -27.5q16 -9 33 -9v0zM720 318z" />
    <glyph glyph-name="uniE606" unicode="&#xe606;" 
d="M513 841q-93 0 -178 -36.5t-146.5 -98t-98 -146.5t-36.5 -178t36.5 -178.5t98 -147t146.5 -98t178 -36.5t178.5 36.5t147 98t98 147t36.5 178.5t-36.5 178t-98 146.5t-147 98t-178.5 36.5zM513 8h-20q-35 59 -63 147q26 -3 83 -3q42 0 112 6q-17 -67 -60 -147
q-9 0 -26 -1.5t-26 -1.5zM513 238q-33 0 -103 6q-12 57 -12 138v34q38 -6 115 -6q83 0 141 12q0 -7 1.5 -20t1.5 -20q0 -75 -11 -133q-58 -11 -133 -11zM140 382q0 49 14 106q69 -32 158 -55q0 -8 -1.5 -25.5t-1.5 -25.5q0 -60 9 -121q-84 18 -175 69q0 9 -1.5 26t-1.5 26z
M513 755q9 0 26 -1.5t26 -1.5q61 -105 83 -241q-64 -12 -135 -12q-36 0 -106 6q22 145 83 250h23zM740 439q54 13 130 46q14 -57 14 -106q0 -9 -1.5 -26t-1.5 -26q-64 -39 -146 -60q5 37 5 112q5 34 0 60zM838 566q-64 -27 -106 -38q-18 109 -55 190q106 -55 161 -152z
M387 732q-47 -103 -63 -212q-74 17 -135 46q65 118 198 166zM177 218q78 -32 161 -49q16 -67 49 -138q-69 26 -123.5 74t-86.5 113zM677 45q26 61 43 130q69 17 130 43q-58 -115 -173 -173z" />
    <glyph glyph-name="uniE607" unicode="&#xe607;" 
d="M64 587q65 111 185 178t263 67t263 -67t185 -178h-78q-26 37 -60 67q-53 48 -121 78q50 -60 80 -145h-71q-17 43 -41 79q-35 52 -78 80q-22 14 -45 20v-179h-68v179q-23 -6 -45 -20q-43 -27 -78 -80q-24 -36 -41 -79h-71q30 85 80 145q-68 -30 -122 -78q-33 -30 -59 -67
h-78zM882 181q-26 -37 -60 -67q-53 -48 -121 -78q50 60 80 145h-71q-17 -43 -41 -79q-35 -52 -78 -80q-22 -14 -45 -20v179h-68v-179q-23 6 -45 20q-43 28 -78 80q-24 36 -41 79h-71q30 -84 80 -145q-69 30 -121 78q-34 30 -60 67h-78q65 -111 185 -178t263 -67t263 67
t185 178h-78zM146 489h120q51 0 77 -28t26 -76t-25 -78t-76 -30h-122v212zM266 304q68 0 68 81q0 76 -75 76h-78v-157h85zM447 445h-1v-168h-35v212h41l152 -169h1v169h35v-212h-41zM707 346q1 -48 77 -48q28 0 46 10t18 26q0 25 -44 32l-54 8q-71 10 -71 55q0 30 25 47.5
t70 17.5q41 0 70 -15.5t31 -51.5h-35q-6 40 -70 40q-22 0 -39 -9t-17 -26q0 -22 39 -28l58 -9q11 -2 15.5 -3t17.5 -5t19.5 -9t13 -15t6.5 -22q0 -37 -30 -53.5t-72 -16.5q-47 0 -78 17.5t-31 57.5h35z" />
    <glyph glyph-name="uniE608" unicode="&#xe608;" 
d="M814 683q-28 28 -66 28q-37 0 -65 -28q-10 -10 0 -20l111 -111q4 -4 10 -4t10 4q28 28 28 65q0 38 -28 66zM646 628q-4 4 -10 4t-11 -4l-399 -399q-3 -4 -4 -9l-50 -156q-2 -8 4 -14q4 -4 10 -4h4l159 51q4 1 6 4l399 399q10 10 0 20z" />
    <glyph glyph-name="uniE609" unicode="&#xe609;" 
d="M875 93v-24v-1v-2v-2q-1 -39 -26 -70q-10 -12 -22 -19q-5 -3 -17 -8q-32 -11 -77 -19q-24 -4 -52 -7q-10 -1 -31 -3q-15 -1 -48 -2h-4h-5h-7h-6h-3h-10h-31h-10h-15h-10h-31h-9h-4h-6h-7q-23 0 -38 1q-10 0 -36 2q-31 3 -61 8q-36 6 -64 15q-17 5 -31 11q-7 3 -17 12
q-26 24 -33 63q-2 11 -3 25v22q1 13 4 27q4 24 10 38q10 25 20 44q18 37 38 67q15 22 32 41q10 12 20 21q27 25 55 41q25 14 49 20q13 3 24 4q5 1 14 1h93h93q20 0 40 -6q30 -9 58 -27q19 -13 38 -30q21 -20 41 -46q22 -28 41 -63t34 -74q3 -7 7 -27q3 -12 3 -30v-2v-1z
M532 831q26 -2 49 -9q47 -15 82 -50t50 -82q8 -22 10 -47q6 -70 -32.5 -129t-104.5 -81q-22 -8 -46 -11q-95 -10 -164 57q-46 45 -58 107q-6 27 -4 54q6 75 58 129q43 44 104 58q12 2 29 4h1h2h2h2h14h2h1h1h2zM470 -64h16h15h-31zM536 -64h16h16h-32zM511 -64h15h1h-1h-15
v0zM511 -64h-10h5h5zM526 -64h5h5h-10zM470 -64h-9h-1h10zM568 -64h9h-9zM444 -64h7h-7zM594 -64h-8h8zM451 -64h6h-6zM586 -64h-6h6zM509 831h-4h4zM532 831h-3h3zM875 96v-3q-1 1 0 3zM457 -64h2h2h-4zM580 -64h-3h3zM509 831h3h-3zM529 831h-3h3zM875 66q-1 2 0 3v-3z
M875 66v-2v0v2z" />
    <glyph glyph-name="uniE60A" unicode="&#xe60a;" 
d="M510 167h3q1 0 3 1q27 7 75.5 57t78.5 125q27 67 28 161q1 7 -4.5 15.5t-12.5 11.5q-134 62 -168 63q-34 -1 -169 -63q-17 -8 -17 -28q2 -93 28 -160q32 -79 80.5 -127.5t74.5 -55.5zM348 511q-1 6 5 8q131 61 160 61t160 -61q5 -2 5 -8q-2 -90 -27 -153
q-28 -69 -70.5 -114.5t-67.5 -55.5q-26 10 -68 54t-70 116q-26 64 -27 153zM510 320l-89 88l16 15l73 -73l113 114l15 -15zM513 -67q-91 0 -174.5 36t-144 96t-96 143.5t-35.5 175t35.5 175t96 144t144 96t175 35.5t175 -35.5t144 -96t96 -144t35.5 -174.5q0 -120 -59 -224
q-5 -8 -13.5 -10t-16 2.5t-10 13t2.5 15.5q53 94 53 203q0 110 -54.5 204t-148.5 149t-204.5 55t-204.5 -55t-149 -149t-55 -204.5t55 -204.5t149 -148.5t204 -54.5q133 0 239 77q7 5 16 3.5t14 -8.5t3.5 -16t-8.5 -14q-118 -85 -264 -85z" />
    <glyph glyph-name="uniE60B" unicode="&#xe60b;" 
d="M243 450v-148q0 -40 -13.5 -85.5t-33.5 -81.5t-40 -66t-33 -46.5t-14 -16.5h806q-5 7 -14.5 18t-32.5 45t-40.5 67.5t-32 79.5t-14.5 86v148q0 57 -15.5 104.5t-37.5 77.5t-53 52.5t-56.5 33.5t-53.5 18t-37.5 8t-15.5 1t-15.5 -1t-37.5 -8t-53.5 -18t-56.5 -33.5
t-53 -52.5t-37.5 -77.5t-15.5 -104.5zM445 812.5q0 -27.5 19.5 -47.5t47.5 -20t47.5 20t19.5 47.5t-19.5 47.5t-47.5 20t-47.5 -20t-19.5 -47.5zM579 -61h-134q0 -28 19.5 -47.5t47.5 -19.5t47.5 19.5t19.5 47.5z" />
    <glyph glyph-name="uniE60C" unicode="&#xe60c;" 
d="M931 420q0 12 -8.5 20t-19.5 8h-43q-13 0 -25.5 9.5t-16.5 21.5l-22 54q-6 12 -4 27t12 24l30 31q8 8 8 19.5t-8 19.5l-52 52q-8 8 -19.5 8t-19.5 -8l-31 -30q-9 -10 -24 -12t-27 4l-54 22q-12 4 -21.5 16.5t-9.5 25.5v43q0 11 -8 19.5t-20 8.5h-72q-12 0 -20 -8.5
t-8 -19.5v-43q0 -13 -9.5 -25.5t-21.5 -16.5l-54 -22q-12 -6 -27 -4t-24 12l-31 30q-8 8 -19.5 8t-19.5 -8l-52 -52q-8 -8 -8 -19.5t8 -19.5l30 -31q10 -9 12 -24t-4 -27l-22 -54q-4 -12 -16.5 -21.5t-25.5 -9.5h-43q-11 0 -19.5 -8t-8.5 -20v-72q0 -12 8.5 -20t19.5 -8h43
q13 -1 25.5 -10t16.5 -21l22 -54q6 -12 4 -27t-12 -24l-30 -31q-8 -8 -8 -19.5t8 -19.5l52 -52q8 -8 19.5 -8t19.5 8l31 30q9 10 24 12t27 -4l54 -22q13 -4 22 -16.5t9 -25.5v-43q0 -11 8 -19.5t20 -8.5h72q12 0 20 8.5t8 19.5v43q0 13 9.5 25.5t21.5 16.5l54 22q12 6 27 4
t24 -12l31 -30q8 -8 19.5 -8t19.5 8l52 52q8 8 8 19.5t-8 19.5l-30 31q-10 9 -12 24t4 27l22 54q4 12 16.5 21t25.5 9h43q11 0 19.5 8.5t8.5 20.5v72v0zM673 384q0 -67 -47 -114t-114 -47t-114 47t-47 114t47 114t114 47t114 -47t47 -114z" />
    <glyph glyph-name="uniE60D" unicode="&#xe60d;" 
d="M157 897l355 -389l355 389h-710z" />
    <glyph glyph-name="uniE60E" unicode="&#xe60e;" 
d="M269 588h488l71 167q23 37 4 60t-63 7l-41 -14q-23 -8 -46 0.5t-33 29.5q-18 37 -38 41t-49 -27l-15 -16q-16 -17 -39.5 -17.5t-39.5 15.5l-16 16q-30 29 -50 26t-36 -40q-9 -18 -32 -26.5t-46 -0.5l-38 12q-44 15 -62 -8.5t7 -62.5zM269 588zM902 302q-17 35 -38 74
q-37 70 -81 146q-13 21 -25 41h-490q-12 -19 -25 -41q-45 -76 -82 -146q-21 -39 -38 -74q-84 -170 -84 -244q0 -96 46.5 -140t139.5 -44h574q93 0 139.5 44t46.5 140q0 74 -83 244zM434 337q0 -5 1 -11q5 -21 26.5 -35t48.5 -14q42 0 74.5 -22t40.5 -57q3 -11 3 -21
q0 -38 -28.5 -66t-70.5 -34v-10q0 -13 -10 -18.5t-20.5 0t-10.5 18.5v11q-40 6 -67.5 34t-27.5 65q0 8 6 14t14.5 6t14.5 -6t6 -14q0 -21 16 -37t41 -22q6 10 18 10t18 -10q26 4 43 21t17 38q0 5 -1 11q-5 21 -26.5 35t-49.5 14q-41 0 -73.5 22t-40.5 57q-3 10 -3 21
q0 37 27.5 65t67.5 34v26q0 12 10.5 17.5t20.5 0t10 -17.5v-25q42 -6 70.5 -34t28.5 -66q0 -8 -6 -14t-14.5 -6t-14.5 6t-6 14q0 21 -16.5 37.5t-41.5 21.5v-3q0 -12 -10 -17.5t-20.5 0t-10.5 17.5v2q-24 -6 -39 -22t-15 -36zM434 337z" />
    <glyph glyph-name="uniE60F" unicode="&#xe60f;" 
d="M858 181q2 8 2 15v437q0 6 -2 14l-227 -220zM858 181zM512 374l60 55l30 28l228 221q-6 2 -12 2h-612q-6 0 -12 -2l228 -221l30 -28zM512 374zM818 149q5 0 12 2l-229 249l-89 -82l-88 81l-230 -248q7 -2 12 -2h612zM818 149zM166 647q-2 -8 -2 -14v-437q0 -7 2 -15
l227 246zM166 647z" />
    <glyph glyph-name="uniE610" unicode="&#xe610;" horiz-adv-x="1000" 
d="M941 -54l-212 216q-5 6 -12 8q73 98 73 221q0 98 -47.5 182t-129.5 132.5t-179 48.5t-179 -48.5t-129.5 -132.5t-47.5 -182.5t47.5 -182.5t129.5 -132.5t179 -48.5q134 0 235 91q3 -6 7 -10l212 -217q11 -11 26.5 -11t26.5 11.5t11 27t-11 27.5zM434 84q-124 0 -212 90
t-88 217t88 216.5t212 89.5t212 -89.5t88 -216.5t-88 -217t-212 -90z" />
    <glyph glyph-name="uniE611" unicode="&#xe611;" 
d="M703 751h-382q-43 0 -73.5 -30.5t-30.5 -73.5v-693q0 -43 30.5 -73.5t73.5 -30.5h382q43 0 73.5 30.5t30.5 73.5v693q0 43 -30.5 73.5t-73.5 30.5zM477 716h70q7 0 12 -5t5 -12t-5 -12t-12 -5h-70q-7 0 -12 5t-5 12t5 12t12 5zM512 -108q-18 0 -31 13t-13 31.5t13 31.5
t31 13t31 -13t13 -31.5t-13 -31.5t-31 -13zM737 40q0 -7 -5 -12t-12 -5h-416q-7 0 -12 5t-5 12v590q0 7 5 12t12 5h416q7 0 12 -5t5 -12v-590z" />
    <glyph glyph-name="uniE612" unicode="&#xe612;" 
d="M755 300l-448 333q-21 10 -32 0q-9 0 -14 -7.5t-5 -18.5v-665q0 -11 5 -18.5t14 -7.5h13q13 0 19 6l448 333q13 0 13 19q0 26 -13 26z" />
    <glyph glyph-name="uniE613" unicode="&#xe613;" 
d="M191 706h65v-642h-65v642zM476 706h65v-642h-65v642zM768 706h65v-642h-65v642z" />
  </font>
</defs>
</svg>
